# xmcd CD database file
#
# Track frame offsets:
#	150
#	15890
#	37690
#	68557
#	83002
#	100340
#	121095
#	138485
#	157597
#	189505
#	215560
#	225035
#	240100
#	260127
#	266267
#	276587
#	291515
#
# Disc length: 4175 seconds
#
# Revision: 6
# Processed by: cddbd v1.5PL3 Copyright (c) Steve Scherf et al.
# Submitted via: CDex 1.50Beta5
#
DISCID=d4104d11
DTITLE=Various Artist - 音で蘇る風景
DYEAR=2000
DGENRE=Other
TTITLE0=美女と野獣
TTITLE1=シャ・リオン
TTITLE2=カノン
TTITLE3=サマー・ガーデン
TTITLE4=GENE
TTITLE5=トライバル・ボート
TTITLE6=TALGO
TTITLE7=ウィンド・イン・ザ・ウィロウズ
TTITLE8=はるかなる大地
TTITLE9=主よ、人の望の喜びよ
TTITLE10=亜麻色の髪の乙女
TTITLE11=愛の悲しみ
TTITLE12=アヴェ・マリア
TTITLE13=トレイン・トゥ・レイミー・パート3(リプライズ )
TTITLE14=無伴奏チェロ組曲1番ト長調:Prelude
TTITLE15=ジムノペディ第1番
TTITLE16=飛天
EXTD=YEAR: 2000
EXTT0=
EXTT1=
EXTT2=
EXTT3=
EXTT4=
EXTT5=
EXTT6=
EXTT7=
EXTT8=
EXTT9=
EXTT10=
EXTT11=
EXTT12=
EXTT13=
EXTT14=
EXTT15=
EXTT16=
PLAYORDER=
